<svg id="vector" xmlns="http://www.w3.org/2000/svg" width="16.0d" height="16.0d" viewBox="0 0 16.0 16.0"><path fill="#000000ff" d="M13,9.3922C13,10.5252 12.305,13.2492 11.755,14.0112L3,14.4722L3,9.0022L13,8.9992L13,9.3922ZM3,0.9992L3.5,0.9992L5,7.9992L3,7.9992L3,0.9992ZM12.956,7.9992L6.022,7.9992L4.308,-0.0008L3,-0.0008C2.448,-0.0008 2,0.4482 2,0.9992L2,15.5272L12.241,14.9882L12.502,14.6812C13.26,13.7132 14,10.6322 14,9.3922L14,9.0702C14,8.4002 13.469,7.9992 12.956,7.9992L12.956,7.9992Z" stroke="#00000000" stroke-width="1.0" fill-rule="evenodd" id="path_0"/></svg>