<svg id="vector" xmlns="http://www.w3.org/2000/svg" width="24.0d" height="24.0d" viewBox="0 0 24.0 24.0"><path fill="@color/CL16" d="M16,3L16,7.56L9.1296,7.5603C9.1384,7.6856 9.1429,7.8122 9.1429,7.94C9.1429,10.6683 7.0962,12.88 4.5714,12.88L4.5714,13.1013L2.8518,19.0396L2.2553,18.6061L1.6121,22L1.0055,21.71L1.6121,18.2175L0.7619,17.6033L1.7675,11.8419C0.6919,10.938 0,9.5263 0,7.94C0,5.2117 2.0467,3 4.5714,3L16,3ZM4.5714,5.28C3.212,5.28 2.1099,6.4709 2.1099,7.94C2.1099,9.4091 3.212,10.6 4.5714,10.6C5.9309,10.6 7.033,9.4091 7.033,7.94C7.033,6.4709 5.9309,5.28 4.5714,5.28ZM22.1266,4.0067C23.0013,4.075 23.4251,4.5418 23.7966,4.954C23.8645,5.0269 23.9325,5.1035 24,5.1718L23.5528,5.7382C23.4765,5.661 23.4049,5.5798 23.3291,5.498C22.9972,5.1306 22.7097,4.8138 22.0825,4.7685C21.4553,4.7185 21.1361,4.9905 20.7642,5.3078C20.345,5.661 19.8734,6.0602 18.9982,5.9924C18.5712,5.9606 18.2512,5.8335 18,5.6657L18,4.7232C18.2755,5.004 18.5588,5.1989 19.0423,5.2353C19.6695,5.2848 19.9933,5.0129 20.3647,4.6955C20.7803,4.3423 21.2555,3.9432 22.1266,4.0067Z" stroke="#00000000" stroke-width="1.0" fill-rule="evenodd" id="path_0"/></svg>