<?xml version="1.0" encoding="UTF-8" standalone="no"?>
<!-- Uploaded to: SVG Repo, www.svgrepo.com, Generator: SVG Repo Mixer Tools -->

<svg
   fill="#000000"
   height="800px"
   width="800px"
   version="1.1"
   viewBox="0 0 315 315"
   enable-background="new 0 0 315 315"
   id="svg3"
   sodipodi:docname="dryer_svgrepo_com_to_the_right-off.svg"
   inkscape:version="1.3.2 (091e20e, 2023-11-25)"
   xmlns:inkscape="http://www.inkscape.org/namespaces/inkscape"
   xmlns:sodipodi="http://sodipodi.sourceforge.net/DTD/sodipodi-0.dtd"
   xmlns="http://www.w3.org/2000/svg"
   xmlns:svg="http://www.w3.org/2000/svg">
  <defs
     id="defs3" />
  <sodipodi:namedview
     id="namedview3"
     pagecolor="#ffffff"
     bordercolor="#000000"
     borderopacity="0.25"
     inkscape:showpageshadow="2"
     inkscape:pageopacity="0.0"
     inkscape:pagecheckerboard="0"
     inkscape:deskcolor="#d1d1d1"
     inkscape:zoom="0.96"
     inkscape:cx="399.47917"
     inkscape:cy="399.47917"
     inkscape:window-width="1392"
     inkscape:window-height="966"
     inkscape:window-x="384"
     inkscape:window-y="25"
     inkscape:window-maximized="0"
     inkscape:current-layer="g3" />
  <g
     id="g3"
     transform="matrix(-1,0,0,1,315,0)">
    <path
       d="m 315,100.426 c 0,-37.044 -35.359,-65.777 -65.777,-65.777 -27.818,0 -136.408,19.515 -141.017,20.346 -3.334,0.601 -5.759,3.502 -5.759,6.889 v 77.086 c 0,3.387 2.425,6.288 5.759,6.889 3.364,0.606 62.13,11.168 104.445,16.828 v 90.127 c 0,15.185 12.354,27.539 27.538,27.539 15.184,0 27.538,-12.354 27.538,-27.539 V 162.908 C 292.359,154.369 315,130.066 315,100.426 Z m -57.88,3.394 c -6.159,0 -9.96,-2.246 -10.814,-3.395 0.854,-1.148 4.655,-3.394 10.814,-3.394 6.159,0 9.959,2.246 10.814,3.394 -0.855,1.149 -4.655,3.395 -10.814,3.395 z m -24.921,-3.394 c 0,7.883 6.773,14.22 16.687,16.49 -1.928,12.539 -6.094,24.352 -12.21,34.525 -24.275,-2.297 -67.514,-9.303 -96.476,-14.225 V 63.635 c 28.816,-4.898 71.77,-11.858 96.112,-14.189 6.216,10.146 10.474,21.94 12.48,34.512 -9.862,2.288 -16.593,8.61 -16.593,16.468 z M 116.447,67.748 c 2.546,-0.449 5.853,-1.03 9.753,-1.708 v 68.771 c -3.9,-0.678 -7.207,-1.259 -9.753,-1.708 z m 137.28,185.065 c 0,7.466 -6.073,13.539 -13.538,13.539 -7.465,0 -13.538,-6.073 -13.538,-13.539 V 164.44 c 9.507,1.094 17.424,1.764 22.571,1.764 1.49,0 2.995,-0.089 4.505,-0.225 z m -1.423,-100.754 c 5.323,-10.583 8.95,-22.362 10.666,-34.686 11.196,-1.744 19.07,-8.447 19.07,-16.947 0,-8.523 -7.917,-15.24 -19.162,-16.961 -1.787,-12.356 -5.484,-24.135 -10.896,-34.7 22.856,1.702 49.018,24.095 49.018,51.661 0,27.436 -25.917,49.746 -48.696,51.633 z"
       id="path1" />
  </g>
</svg>
