<svg id="vector" xmlns="http://www.w3.org/2000/svg" width="24.0d" height="24.0d" viewBox="0 0 24.0 24.0"><path fill="#131413ff" d="M4.47683171,9.69197295 C5.84488227,9.69197295 6.95410063,10.7738685 6.95410063,12.1082206 C6.95410063,13.4421462 5.84488227,14.5240417 4.47683171,14.5240417 C3.10878115,14.5240417 2,13.4421462 2,12.1082206 C2,10.7738685 3.10878115,9.69197295 4.47683171,9.69197295 Z M11.7073201,21.1740145 L10.9430656,20.1343372 C13.6293241,18.2549861 15.2334715,15.216979 15.2334715,12.0079668 C15.2334715,8.83861411 13.6599292,5.82235583 11.0235135,3.93959316 L11.7982612,2.90759188 C14.7708964,5.0304441 16.5451212,8.4322103 16.5451212,12.0079668 C16.5451212,15.6285002 14.7367936,19.0550003 11.7073201,21.1740145 Z M8.60125433,17.9309641 L7.96204375,16.8140999 C9.81278137,15.807259 10.9617864,13.9027475 10.9617864,11.8442888 C10.9617864,9.82548957 9.84557261,7.93931533 8.04773819,6.92181324 L8.7061863,5.81518377 C10.9066972,7.0608349 12.2734361,9.37089727 12.2734361,11.8442888 C12.2734361,14.3662952 10.8664732,16.6981064 8.60125433,17.9309641 Z M14.6953375,24 L13.9240875,22.9645871 C17.53331,20.4076121 19.6883504,16.2962384 19.6883504,11.9669504 C19.6883504,7.61378134 17.6168184,3.62735656 14.0045353,1.0294426 L14.783218,0 C18.7339067,2.84141509 21,7.20311306 21,11.9669504 C21,16.704348 18.6429656,21.2025089 14.6953375,24 Z" fill-rule="evenodd" id="path_0"/></svg>