<svg id="vector" xmlns="http://www.w3.org/2000/svg" width="24.0d" height="24.0d" viewBox="0 0 24.0 24.0"><path fill="#131413ff" d="M8.49304,10 C9.86936,10 10.98564,11.11628 10.98564,12.49304 C10.98564,13.86936 9.86936,14.98564 8.49304,14.98564 C7.11628,14.98564 6,13.86936 6,12.49304 C6,11.11628 7.11628,10 8.49304,10 Z M11.76912,16.90208 L11,15.82936 C12.09472,15.04396 12.749,13.77544 12.749,12.4352 C12.749,11.11168 12.10748,9.85196 11.033,9.06524 L11.81268,8 C13.22552,9.03444 14.069,10.69236 14.069,12.4352 C14.069,14.19916 13.2088,15.86896 11.76912,16.90208 Z M13.77616,18.628 L13,17.55968 C14.6852,16.3356 15.69148,14.36792 15.69148,12.2964 C15.69148,10.21344 14.72392,8.30604 13.03784,7.0626 L13.82148,6 C15.84856,7.49512 17.01148,9.79016 17.01148,12.2964 C17.01148,14.789 15.80192,17.1562 13.77616,18.628 Z" fill-rule="evenodd" id="path_0"/></svg>