<svg id="vector" xmlns="http://www.w3.org/2000/svg" width="24.0d" height="24.0d" viewBox="0 0 24.0 24.0"><path fill="#131413ff" d="M19.1284067,3.89433316 C18.4455354,3.56454121 17.9726894,2.86049456 17.9726894,2.04706655 C17.9726894,0.918040273 18.8829536,0 20.0014915,0 C21.1200295,0 22.0302937,0.918040273 22.0302937,2.04706655 C22.0302937,2.85695915 21.561549,3.55841912 20.8834684,3.89001183 C22.0979641,4.19716573 23,5.30731643 23,6.62634566 L23,14.4001751 L22.0428535,14.4001751 L21.1006429,18.5081227 L22.1544583,23.1025103 L20.9421557,23.3854995 L19.8223731,18.5081227 L20.7654134,14.4001751 L19.1033723,14.4001751 L19.1033723,23.2440049 L17.8587084,23.2440049 L17.8587084,14.4001751 L17.0297622,14.4001751 L17.0297622,6.62634566 C17.0297622,5.31342826 17.9228671,4.20745817 19.1284067,3.89433316 Z M3.35034031,9.51415945 C4.64852475,9.51415945 5.70109551,10.5757874 5.70109551,11.8856588 C5.70109551,13.1955302 4.64852475,14.2571582 3.35034031,14.2571582 C2.05215587,14.2571582 1,13.1955302 1,11.8856588 C1,10.5757874 2.05215587,9.51415945 3.35034031,9.51415945 Z M10.2115689,20.7859647 L9.4863447,19.7653618 C12.0358312,17.9204902 13.5580552,14.9382198 13.5580552,11.7880816 C13.5580552,8.67645674 12.0644585,5.71595477 9.56268409,3.86773416 L10.2978656,2.85424783 C13.1186888,4.93815321 14.8027191,8.27792763 14.8027191,11.7880816 C14.8027191,15.3417724 13.0863276,18.7054083 10.2115689,20.7859647 Z M7.26412934,17.6019942 L6.65756313,16.5056205 C8.41378388,15.5172515 9.50410945,13.6476812 9.50410945,11.6269879 C9.50410945,9.64480789 8.44490048,7.79323829 6.73888117,6.79482239 L7.36370245,5.70849567 C9.45183356,6.9312935 10.7487733,9.19897437 10.7487733,11.6269879 C10.7487733,14.1027244 9.41366387,16.391755 7.26412934,17.6019942 Z M15.9582575,5.10427043 C15.0579506,3.53150376 13.8298822,2.13748912 12.3151263,1.01055596 L13.0540417,0 C14.5629893,1.12232831 15.8076531,2.4899697 16.7627252,4.02464167 C16.4386977,4.3360972 16.1661163,4.6998806 15.9582575,5.10427043 Z M16.4104854,18.076903 L16.4104854,20.5312897 C15.4969021,21.8524639 14.3684068,23.031725 13.0469886,24 L12.3151263,22.9840019 C14.0767406,21.6929686 15.4695195,19.9962895 16.4104854,18.076903 Z M20.0014915,1.25586905 C19.5691783,1.25586905 19.2173533,1.61086136 19.2173533,2.04706655 C19.2173533,2.48327173 19.5691783,2.83784542 20.0014915,2.83784542 C20.4338048,2.83784542 20.7856298,2.48327173 20.7856298,2.04706655 C20.7856298,1.61086136 20.4338048,1.25586905 20.0014915,1.25586905 Z M18.2744261,6.62634566 L18.2744261,13.144306 L21.7553361,13.144306 L21.7553361,6.62634566 C21.7553361,5.763145 21.0591541,5.06153283 20.2032402,5.06153283 L19.8252773,5.06153283 C18.9701932,5.06153283 18.2744261,5.763145 18.2744261,6.62634566 Z" fill-rule="evenodd" id="path_0"/></svg>