<svg id="vector" xmlns="http://www.w3.org/2000/svg" width="24.0d" height="24.0d" viewBox="0 0 24.0 24.0"><path fill="#131413ff" d="M18.9550383,3.99666452 C18.2415883,3.65820662 17.7475685,2.93565975 17.7475685,2.10085729 C17.7475685,0.942163608 18.6985939,0 19.8672195,0 C21.0358452,0 21.9868706,0.942163608 21.9868706,2.10085729 C21.9868706,2.93203143 21.4971358,3.65192367 20.7886909,3.99222964 C22.0575713,4.30745462 23,5.44677673 23,6.80046608 L23,14.7785683 L21.9999928,14.7785683 L21.0155905,18.9944605 L22.1165953,23.7095747 L20.8500063,24 L19.6800802,18.9944605 L20.6653495,14.7785683 L18.9288828,14.7785683 L18.9288828,23.8547874 L17.6284834,23.8547874 L17.6284834,14.7785683 L16.7624174,14.7785683 L16.7624174,6.80046608 C16.7624174,5.45304916 17.6955152,4.3180175 18.9550383,3.99666452 Z M3.4555876,9.76416292 C4.81190421,9.76416292 5.91160866,10.8536873 5.91160866,12.1979782 C5.91160866,13.5422691 4.81190421,14.6317934 3.4555876,14.6317934 C2.09970445,14.6317934 1,13.5422691 1,12.1979782 C1,10.8536873 2.09970445,9.76416292 3.4555876,9.76416292 Z M6.6838883,16.5030367 L5.92575543,15.4556154 C7.0046535,14.688738 7.64878468,13.4501344 7.64878468,12.1415022 C7.64878468,10.8491958 7.01679056,9.61918463 5.95826542,8.85058878 L6.72680148,7.81133033 C8.11822888,8.82094478 8.94918412,10.4401945 8.94918412,12.1415022 C8.94918412,13.8638615 8.10219062,15.4942815 6.6838883,16.5030367 Z M8.66025901,18.1878234 L7.8960576,17.1446984 C9.55623422,15.9499164 10.5475721,14.0290712 10.5475721,12.0059757 C10.5475721,9.97256921 9.59437927,8.10972315 7.93333572,6.89560808 L8.70490605,5.85849775 C10.7023196,7.31792765 11.8479715,9.5588421 11.8479715,12.0059757 C11.8479715,14.4402205 10.6559387,16.7511636 8.66025901,18.1878234 Z M19.8672195,1.28886951 C19.4155475,1.28886951 19.0479679,1.65318995 19.0479679,2.10085729 C19.0479679,2.54852463 19.4155475,2.91241546 19.8672195,2.91241546 C20.3188916,2.91241546 20.6864712,2.54852463 20.6864712,2.10085729 C20.6864712,1.65318995 20.3188916,1.28886951 19.8672195,1.28886951 Z M18.0628168,6.80046608 L18.0628168,13.4896988 L21.6996006,13.4896988 L21.6996006,6.80046608 C21.6996006,5.9145831 20.9722438,5.19453467 20.0780025,5.19453467 L19.6831145,5.19453467 C18.7897401,5.19453467 18.0628168,5.9145831 18.0628168,6.80046608 Z" fill-rule="evenodd" id="path_0"/></svg>