<svg id="vector" xmlns="http://www.w3.org/2000/svg" width="16.0d" height="16.0d" viewBox="0 0 16.0 16.0"><path fill="#000000ff" d="M16,12.01L16,13.01L10,13.01L10,12.01L16,12.01ZM9,14.96C7.31,14.7 6,13.18 6,11.34C6,10.48 6.42,9.69 6.88,8.88C7.63,7.58 8.38,6.27 9.36,4.69L9.5,4.46L9.64,4.69C10.63,6.29 11.38,7.59 12.12,8.88C12.15,8.92 12.17,8.97 12.19,9.01L13.33,9.01C13.22,8.8 13.1,8.59 12.98,8.38C12.23,7.08 11.48,5.77 10.48,4.16L9.49,2.56L8.5,4.16C7.51,5.76 6.75,7.07 6,8.38C5.47,9.31 4.99,10.23 4.99,11.34C4.99,13.74 6.75,15.7 8.99,15.96L8.99,14.96L9,14.96ZM6,5.85C6,5.11 5.67,4.48 5.37,3.95C4.93,3.18 4.51,2.45 3.96,1.55L3,0L2.04,1.55C1.49,2.44 1.07,3.18 0.63,3.94C0.33,4.48 0,5.11 0,5.85C0,7.57 1.35,8.96 3,8.96C4.65,8.96 6,7.57 6,5.85ZM3.11,2.08C3.65,2.96 4.07,3.69 4.51,4.45C4.76,4.89 5.01,5.36 5.01,5.85C5.01,7.01 4.11,7.96 3.01,7.96C1.91,7.96 1.01,7.02 1.01,5.85C1.01,5.35 1.26,4.88 1.51,4.44C1.94,3.68 2.36,2.96 2.9,2.08L3.01,1.91L3.12,2.08L3.11,2.08Z" stroke="#00000000" stroke-width="1.0" fill-rule="evenodd" id="path_0"/></svg>