<svg id="vector" xmlns="http://www.w3.org/2000/svg" width="24.0d" height="24.0d" viewBox="0 0 24.0 24.0"><path fill="@color/CL16" d="M9.8475,20.0666C11.2849,20.0666 12.0184,20.9063 12.621,21.5951C13.2226,22.284 13.6001,22.6753 14.4042,22.6753C15.2084,22.6753 15.5931,22.2758 16.1905,21.5951C16.7879,20.9145 17.5316,20.0717 18.9691,20.0717C20.4065,20.0717 21.1482,20.9195 21.7426,21.6003C21.9841,21.9049 22.2654,22.177 22.5785,22.4083C22.8619,22.6132 22.9335,23.0045 22.7411,23.2959C22.5478,23.5873 22.159,23.676 21.8582,23.4967C21.4439,23.2011 21.0725,22.8506 20.7554,22.4532L20.7554,22.4532C20.1497,21.7643 19.7691,21.373 18.9681,21.373C18.167,21.373 17.7793,21.7725 17.1849,22.4532C16.5904,23.1339 15.8487,23.9817 14.4113,23.9817C12.9739,23.9817 12.2403,23.142 11.6377,22.4532C11.0362,21.7643 10.6556,21.373 9.8545,21.373C9.0535,21.373 8.6708,21.7725 8.0713,22.4532C7.4719,23.1339 6.7281,23.9817 5.2917,23.9817C3.8574,23.9817 3.1157,23.1339 2.5213,22.4532C2.244,22.0833 1.8962,21.7715 1.4972,21.535L1.4972,21.535C1.1698,21.374 1.0357,20.9827 1.1953,20.6597C1.3539,20.3366 1.7468,20.2021 2.0711,20.3611C2.6297,20.6699 3.1177,21.0897 3.5065,21.5951L3.5065,21.5951C4.109,22.284 4.4896,22.6753 5.2907,22.6753C6.0917,22.6753 6.4764,22.2759 7.0739,21.5951C7.6714,20.9144 8.41,20.0666 9.8475,20.0666ZM9.8475,15.6317C11.2849,15.6317 12.0185,16.4714 12.621,17.1603C13.2226,17.8491 13.6001,18.2404 14.4043,18.2404C15.2084,18.2404 15.5931,17.8409 16.1905,17.1603C16.7879,16.4796 17.5316,15.6368 18.9691,15.6368C20.4065,15.6368 21.1482,16.4847 21.7426,17.1654C21.9841,17.4701 22.2654,17.7421 22.5785,17.9735C22.7319,18.0652 22.8404,18.215 22.8803,18.3882C22.9202,18.5625 22.8874,18.7438 22.7892,18.8926C22.691,19.0414 22.5355,19.1433 22.3595,19.1749C22.1836,19.2075 22.0025,19.1657 21.8582,19.0618C21.4439,18.7663 21.0725,18.4157 20.7554,18.0183L20.7554,18.0183C20.1497,17.3294 19.7691,16.9381 18.9681,16.9381C18.167,16.9381 17.7793,17.3376 17.1849,18.0183C16.5904,18.699 15.8487,19.5468 14.4113,19.5468C12.9739,19.5468 12.2403,18.7071 11.6377,18.0183C11.0362,17.3294 10.6556,16.9381 9.8545,16.9381C9.0535,16.9381 8.6708,17.3376 8.0713,18.0183C7.4719,18.699 6.7281,19.5468 5.2917,19.5468C3.8574,19.5468 3.1157,18.699 2.5213,18.0183C2.244,17.6484 1.8962,17.3366 1.4972,17.1002C1.3417,17.0237 1.222,16.8882 1.1668,16.7252C1.1105,16.5611 1.1217,16.3817 1.1995,16.2258C1.358,15.9048 1.7468,15.7703 2.0711,15.9262C2.6297,16.235 3.1177,16.6548 3.5065,17.1603L3.5065,17.1603C4.1091,17.8491 4.4896,18.2404 5.2907,18.2404C6.0918,18.2404 6.4795,17.841 7.0739,17.1603C7.6683,16.4795 8.41,15.6317 9.8475,15.6317ZM15.9287,2.0973C16.1711,2.0973 16.3942,2.2308 16.5077,2.4448L16.5077,2.4448L19.5196,8.1391C20.1816,9.3923 20.1376,10.8995 19.403,12.1121C18.6684,13.3237 17.3506,14.0656 15.9286,14.0666C14.5066,14.0656 13.1889,13.3237 12.4544,12.1121C11.7198,10.8996 11.6758,9.3925 12.3377,8.1391L12.3377,8.1391L15.3496,2.4448C15.4632,2.2308 15.6862,2.0973 15.9287,2.0973ZM5.5231,0.0205C5.7656,0.0205 5.9886,0.154 6.1022,0.368L6.1022,0.368L7.7831,3.5503C8.2005,4.339 8.1739,5.2887 7.7114,6.052C7.249,6.8163 6.4183,7.283 5.5231,7.284L5.5231,7.284C4.6269,7.2871 3.7951,6.8204 3.3317,6.0551C2.8683,5.2908 2.8416,4.34 3.2601,3.5503L3.2601,3.5503L4.9441,0.368C5.0576,0.154 5.2807,0.0205 5.5231,0.0205Z" stroke="#00000000" stroke-width="1.0" fill-rule="evenodd" id="path_0"/></svg>