<svg id="vector" xmlns="http://www.w3.org/2000/svg" width="16.0d" height="16.0d" viewBox="0 0 16.0 16.0"><path fill="#000000ff" d="M8.005,15.7102C6.2661,15.0606 5.0069,13.3517 5.0069,11.3229C5.0069,10.2136 5.4866,9.2942 6.0162,8.3648C6.7658,7.0556 7.5253,5.7464 8.5147,4.1474L9.5041,2.5484L10.4934,4.1474C11.143,5.1968 11.6927,6.1162 12.2024,6.9956L11.0431,6.9956C10.6234,6.2761 10.1636,5.5166 9.644,4.6771L9.5041,4.4472L9.3641,4.6771C8.3848,6.2561 7.6352,7.5553 6.8857,8.8645C6.426,9.674 6.0062,10.4635 6.0062,11.3229C6.0062,12.782 6.8257,14.0312 8.005,14.6309L8.005,15.7102L8.005,15.7102ZM16,12.0025L13.0019,12.0025L13.0019,9.0044L12.0025,9.0044L12.0025,12.0025L9.0044,12.0025L9.0044,13.0019L12.0025,13.0019L12.0025,16L13.0019,16L13.0019,13.0019L16,13.0019L16,12.0025ZM6.0062,5.8463C6.0062,5.1068 5.6765,4.4772 5.3766,3.9475C4.9369,3.178 4.5172,2.4485 3.9675,1.549L3.0081,0L2.0487,1.549C1.4991,2.4385 1.0793,3.178 0.6396,3.9375C0.3398,4.4772 0.01,5.1068 0.01,5.8463C0.01,7.5653 1.3592,8.9544 3.0081,8.9544C4.6571,8.9544 6.0062,7.5653 6.0062,5.8463ZM3.1181,2.0787C3.6577,2.9582 4.0775,3.6877 4.5172,4.4472C4.767,4.8869 5.0169,5.3567 5.0169,5.8463C5.0169,7.0056 4.1174,7.955 3.0181,7.955C1.9188,7.955 1.0194,7.0156 1.0194,5.8463C1.0194,5.3467 1.2692,4.877 1.5191,4.4372C1.9488,3.6777 2.3685,2.9582 2.9082,2.0787L3.0181,1.9088L3.128,2.0787L3.1181,2.0787Z" stroke="#00000000" stroke-width="1.0" fill-rule="evenodd" id="path_0"/></svg>