<svg id="vector" xmlns="http://www.w3.org/2000/svg" width="19.0d" height="19.0d" viewBox="0 0 19.0 19.0"><path fill="#000000ff" d="M0,18L11,18L11,1L0,1L0,18ZM1.2607,4.5001L9.7393,4.5001L9.7393,2.1651L1.2607,2.1651L1.2607,4.5001ZM1.2607,13.3348L9.7393,13.3348L9.7393,5.6652L1.2607,5.6652L1.2607,13.3348ZM1.2607,16.8337L9.7393,16.8337L9.7393,14.5011L1.2607,14.5011L1.2607,16.8337ZM13,8.5C13.828,8.5 14.5,9.172 14.5,10C14.5,10.828 13.828,11.5 13,11.5C12.172,11.5 11.5,10.828 11.5,10C11.5,9.172 12.172,8.5 13,8.5M16.496,5.819C17.752,6.841 18.5,8.379 18.5,10C18.5,11.623 17.752,13.159 16.496,14.181L15.857,13.414C16.887,12.581 17.5,11.326 17.5,10C17.5,8.676 16.886,7.419 15.857,6.586ZM15.217,7.3397C16.017,7.9837 16.5,8.9617 16.5,10.0007C16.5,11.0437 16.017,12.0167 15.216,12.6597L14.566,11.8797C15.141,11.4247 15.5,10.7437 15.5,10.0007C15.5,9.2607 15.14,8.5767 14.566,8.1217Z" stroke="#00000000" stroke-width="1.0" fill-rule="evenodd" id="path_0"/></svg>