<svg id="vector" xmlns="http://www.w3.org/2000/svg" width="24.0d" height="24.0d" viewBox="0 0 24.0 24.0"><path fill="@color/CL16" d="M20.1741,16.9545C20.1741,16.9545 20.1021,17.1145 19.9741,17.3955C19.8951,17.5265 19.8021,17.6915 19.6861,17.8765C19.6221,17.9645 19.5531,18.0585 19.4821,18.1575C19.4451,18.2065 19.4101,18.2595 19.3681,18.3095C19.3261,18.3585 19.2831,18.4085 19.2401,18.4595C19.1511,18.5605 19.0621,18.6725 18.9601,18.7755C18.8591,18.8795 18.7511,18.9865 18.6411,19.0975C18.5321,19.2095 18.4081,19.3075 18.2871,19.4175C18.2251,19.4725 18.1641,19.5255 18.1011,19.5825C18.0361,19.6345 17.9691,19.6855 17.9021,19.7375C17.7681,19.8415 17.6341,19.9525 17.4921,20.0545C17.3481,20.1545 17.2031,20.2575 17.0571,20.3595C16.9111,20.4645 16.7571,20.5535 16.6041,20.6525C16.4511,20.7505 16.2971,20.8485 16.1381,20.9355C15.9801,21.0255 15.8231,21.1165 15.6661,21.2065C15.5051,21.2895 15.3451,21.3725 15.1871,21.4555C14.8711,21.6275 14.5491,21.7665 14.2401,21.9165C13.9291,22.0545 13.6261,22.1845 13.3361,22.3055C13.0451,22.4195 12.7691,22.5275 12.5141,22.6265C12.2511,22.7195 12.0101,22.8045 11.7951,22.8795C11.6851,22.9195 11.5921,22.9485 11.5041,22.9785C11.4171,23.0065 11.3371,23.0315 11.2641,23.0565C10.9731,23.1515 10.8071,23.2065 10.8071,23.2065C10.0681,23.4475 9.2741,23.0445 9.0321,22.3065C8.7911,21.5685 9.1951,20.7745 9.9321,20.5325C10.0441,20.4955 10.1641,20.4745 10.2771,20.4665C10.2771,20.4665 10.4511,20.4535 10.7571,20.4345C10.8321,20.4305 10.9181,20.4235 11.0091,20.4175C11.1021,20.4115 11.2021,20.4055 11.2981,20.3965C11.4961,20.3795 11.7201,20.3585 11.9661,20.3375C12.2141,20.3065 12.4831,20.2735 12.7691,20.2395C13.0531,20.1965 13.3541,20.1495 13.6641,20.0975C13.9691,20.0345 14.2941,19.9825 14.6131,19.9025C14.7741,19.8645 14.9361,19.8275 15.0991,19.7885C15.2601,19.7445 15.4221,19.7005 15.5831,19.6555C15.7471,19.6125 15.9051,19.5615 16.0651,19.5085C16.2211,19.4565 16.3851,19.4105 16.5381,19.3505C16.6941,19.2915 16.8461,19.2335 16.9981,19.1755C17.1501,19.1165 17.2931,19.0485 17.4391,18.9865C17.5111,18.9545 17.5841,18.9255 17.6541,18.8915C17.7221,18.8565 17.7911,18.8215 17.8581,18.7865C17.9921,18.7155 18.1321,18.6535 18.2541,18.5785C18.3781,18.5055 18.4991,18.4335 18.6171,18.3625C18.7341,18.2915 18.8371,18.2115 18.9431,18.1405C18.9951,18.1035 19.0461,18.0675 19.0971,18.0325C19.1471,17.9965 19.1901,17.9565 19.2351,17.9205C19.3251,17.8455 19.4101,17.7755 19.4901,17.7085C19.6421,17.5655 19.7681,17.4355 19.8751,17.3255C20.0661,17.0905 20.1741,16.9545 20.1741,16.9545ZM5.2134,0.9998L5.6323,1.0013C6.4813,1.0133 7.4043,1.0373 8.3773,1.1133C9.3533,1.1883 10.3813,1.2993 11.4423,1.4643C13.5643,1.7963 15.8223,2.3333 18.0083,3.2653C18.5513,3.5053 19.0943,3.7603 19.6203,4.0643C19.8873,4.2063 20.1433,4.3743 20.4033,4.5383C20.5323,4.6213 20.6573,4.7143 20.7843,4.8013L20.7843,4.8013L20.9733,4.9373L21.1593,5.0813C21.2813,5.1813 21.4073,5.2713 21.5233,5.3793C21.6433,5.4853 21.7613,5.5913 21.8793,5.6963C22.1073,5.9253 22.3353,6.1533 22.5423,6.4133C22.9593,6.9213 23.3283,7.5093 23.5803,8.1713C23.6363,8.3433 23.6953,8.5043 23.7453,8.6853C23.7903,8.8853 23.8313,9.0883 23.8643,9.2903C23.8803,9.4203 23.8953,9.5503 23.9113,9.6793L23.9113,9.6793L23.9143,9.7033L23.9143,9.7033L23.9143,9.7167C23.9156,9.7107 23.9159,9.7122 23.9169,9.7556L23.9183,9.8143L23.9193,9.8823L23.9203,10.0193C23.9233,10.1103 23.9203,10.1993 23.9123,10.2893C23.8963,10.6523 23.8363,11.0063 23.7463,11.3413C23.6603,11.6783 23.5423,11.9943 23.4053,12.2893C23.1363,12.8843 22.7953,13.3873 22.4423,13.8273C22.0883,14.2713 21.7163,14.6493 21.3493,14.9833C20.6103,15.6503 19.8873,16.1473 19.2363,16.5533C18.5863,16.9603 18.0043,17.2643 17.5213,17.5063C17.2793,17.6253 17.0643,17.7273 16.8753,17.8143C16.6793,17.9023 16.5123,17.9753 16.3773,18.0353C16.1353,18.1403 16.0063,18.1953 16.0063,18.1953C14.9433,18.6533 13.7093,18.1643 13.2523,17.1013C12.7933,16.0383 13.2833,14.8043 14.3463,14.3463C14.4213,14.3143 14.4993,14.2853 14.5763,14.2623C14.5763,14.2623 14.7103,14.2223 14.9623,14.1473C15.0733,14.1123 15.2103,14.0693 15.3703,14.0203C15.5353,13.9653 15.7253,13.9033 15.9343,13.8273C16.3513,13.6763 16.8563,13.4853 17.4013,13.2273C17.9463,12.9713 18.5423,12.6533 19.1083,12.2533C19.6693,11.8553 20.2063,11.3653 20.5433,10.8273C20.6293,10.6943 20.7003,10.5583 20.7553,10.4213C20.8143,10.2823 20.8583,10.1453 20.8853,10.0013C20.8943,9.9663 20.9003,9.9303 20.9043,9.8943L20.9043,9.8943L20.9113,9.8393L20.9153,9.8137L20.9163,9.8387L20.9173,9.4693C20.9128,9.4428 20.9095,9.4165 20.9076,9.3897L20.9053,9.3063C20.8943,9.2343 20.8733,9.1463 20.8593,9.0643C20.7013,8.3903 20.2243,7.6263 19.5293,6.9563L19.5293,6.9563L19.4033,6.8273L19.2663,6.7053C19.1733,6.6243 19.0843,6.5393 18.9883,6.4593C18.7913,6.3023 18.5993,6.1403 18.3873,5.9923C17.9773,5.6853 17.5293,5.4073 17.0733,5.1383C16.1533,4.6093 15.1693,4.1523 14.1733,3.7593C13.1743,3.3643 12.1613,3.0343 11.1653,2.7583C10.1683,2.4823 9.1883,2.2593 8.2503,2.0763C7.3143,1.8923 6.4183,1.7633 5.5873,1.6533C5.1723,1.6043 4.7733,1.5543 4.3933,1.5203C4.2053,1.5033 4.0203,1.4863 3.8413,1.4683C3.6603,1.4553 3.4833,1.4443 3.3133,1.4333C2.9713,1.4103 2.6503,1.3893 2.3553,1.3703C2.2083,1.3613 2.0653,1.3513 1.9303,1.3423C1.7943,1.3383 1.6663,1.3353 1.5443,1.3313C0.5603,1.3073 0.0003,1.2923 0.0003,1.2923C0.0003,1.2923 0.5603,1.2413 1.5423,1.1523C1.6663,1.1413 1.7943,1.1283 1.9313,1.1163C2.0663,1.1103 2.2093,1.1033 2.3573,1.0953C2.6533,1.0803 2.9733,1.0643 3.3153,1.0473C3.4873,1.0373 3.6633,1.0293 3.8453,1.0203C4.0293,1.0163 4.2183,1.0123 4.4133,1.0083C4.8003,0.9973 5.2073,0.9993 5.6323,1.0013ZM4.833,6.0194L5.1547,6.0229C5.3717,6.0259 5.5947,6.0249 5.8197,6.0379C6.0467,6.0469 6.2757,6.0579 6.5077,6.0679C6.7407,6.0869 6.9777,6.1039 7.2147,6.1229C7.4517,6.1369 7.6907,6.1669 7.9327,6.1949C8.1727,6.2229 8.4157,6.2459 8.6547,6.2859C8.8957,6.3249 9.1367,6.3589 9.3767,6.3999C9.6167,6.4459 9.8557,6.4929 10.0927,6.5389C10.5637,6.6429 11.0307,6.7509 11.4777,6.8839C11.5887,6.9169 11.6997,6.9489 11.8097,6.9789C11.9187,7.0169 12.0277,7.0519 12.1347,7.0879C12.3477,7.1619 12.5597,7.2279 12.7597,7.3119C12.9627,7.3949 13.1607,7.4649 13.3487,7.5519C13.5367,7.6389 13.7187,7.7249 13.8927,7.8059C14.2367,7.9919 14.5557,8.1569 14.8267,8.3449C14.8947,8.3899 14.9607,8.4329 15.0257,8.4749C15.0577,8.4969 15.0887,8.5149 15.1187,8.5379C15.1517,8.5639 15.1837,8.5869 15.2127,8.6119C15.3367,8.7099 15.4487,8.8009 15.5507,8.8809C15.5997,8.9209 15.6567,8.9659 15.6877,8.9969C15.7227,9.0289 15.7547,9.0579 15.7837,9.0859C15.8427,9.1419 15.8927,9.1889 15.9347,9.2269C16.0147,9.3019 16.0597,9.3439 16.0597,9.3439C16.4817,9.7399 16.5037,10.4039 16.1067,10.8269C15.7107,11.2509 15.0467,11.2699 14.6237,10.8749C14.5897,10.8419 14.5587,10.8089 14.5237,10.7659C14.5237,10.7659 14.4857,10.7189 14.4147,10.6329L14.3773,10.5858C14.3506,10.5523 14.3204,10.5146 14.2857,10.4719C14.2607,10.4409 14.2337,10.4079 14.2047,10.3719C14.1737,10.3329 14.1527,10.3179 14.1237,10.2869C14.0697,10.2309 14.0097,10.1679 13.9437,10.1009L13.9437,10.1009L13.8957,10.0469C13.8757,10.0279 13.8527,10.0089 13.8297,9.9899C13.7857,9.9509 13.7387,9.9099 13.6917,9.8689C13.5067,9.6959 13.2627,9.5249 13.0027,9.3309C12.8637,9.2409 12.7197,9.1479 12.5707,9.0519C12.4207,8.9539 12.2527,8.8699 12.0877,8.7709C11.9227,8.6719 11.7417,8.5869 11.5577,8.4969C11.4667,8.4509 11.3737,8.4039 11.2797,8.3579C11.1847,8.3149 11.0877,8.2729 10.9907,8.2299C10.6007,8.0499 10.1827,7.8929 9.7567,7.7329C9.5407,7.6599 9.3227,7.5859 9.1047,7.5099C8.8827,7.4409 8.6597,7.3779 8.4367,7.3089C8.2147,7.2399 7.9857,7.1869 7.7607,7.1279C7.5357,7.0679 7.3097,7.0089 7.0847,6.9629C6.8587,6.9139 6.6337,6.8659 6.4127,6.8169C6.1887,6.7769 5.9687,6.7359 5.7517,6.6969C5.5337,6.6539 5.3197,6.6259 5.1097,6.5929C4.8977,6.5639 4.6917,6.5289 4.4887,6.5039C4.2877,6.4799 4.0907,6.4599 3.9017,6.4359C3.8067,6.4249 3.7127,6.4149 3.6197,6.4059C3.5357,6.3949 3.4397,6.3899 3.3517,6.3819C2.9947,6.3559 2.6677,6.3309 2.3787,6.3089C2.0887,6.2909 1.8377,6.2879 1.6297,6.2779C1.2127,6.2629 0.9747,6.2539 0.9747,6.2539C0.9747,6.2539 1.2127,6.2299 1.6267,6.1879C1.8347,6.1679 2.0897,6.1359 2.3797,6.1159C2.6697,6.0979 2.9967,6.0779 3.3537,6.0549C3.4447,6.0509 3.5297,6.0439 3.6307,6.0409C3.7247,6.0379 3.8197,6.0349 3.9167,6.0339C4.1107,6.0289 4.3127,6.0249 4.5187,6.0189C4.7257,6.0159 4.9377,6.0219 5.1547,6.0229Z" stroke="#00000000" stroke-width="1.0" fill-rule="evenodd" id="path_0"/></svg>