<?xml version="1.0" encoding="UTF-8" standalone="no"?>
<!-- Created with Inkscape (http://www.inkscape.org/) -->

<svg
   version="1.1"
   id="svg1"
   width="133.33333"
   height="133.33333"
   viewBox="0 0 133.33333 133.33333"
   xmlns="http://www.w3.org/2000/svg"
   xmlns:svg="http://www.w3.org/2000/svg">
  <defs
     id="defs1" />
  <g
     id="g1"
     transform="translate(-35.999999,-13.097331)">
    <path
       id="path1"
       style="fill:#000000"
       d="m 35.999999,62.66569 v 8.628907 c 4.223714,-0.07296 8.443362,-0.162331 12.666016,0.03906 l 0.178817,31.332033 h 24.489151 v 1.03711 l -0.202634,2.05028 -1.010266,2.4834 -2.833975,2.68409 -12.30028,0.008 0.177234,8.46338 c 0,0 7.937235,0.60852 11.704587,-0.41527 1.483955,-0.40327 3.536193,-0.61588 4.869621,-1.38186 1.442108,-0.82841 2.862307,-2.04869 4.057132,-3.20555 0.943257,-0.91328 1.641285,-1.79145 2.360837,-2.88966 0.719251,-1.09775 1.955569,-3.29296 1.955569,-3.29296 L 83.039062,93.333417 H 57.333983 V 62.66569 Z" />
  </g>
</svg>
