<svg id="vector" xmlns="http://www.w3.org/2000/svg" width="24.0d" height="24.0d" viewBox="0 0 24.0 24.0"><path fill="@color/CL16" d="M14.5303,16.7321C14.6187,15.611 15.0473,14.414 15.7046,13.2114C16.1187,12.4538 16.5423,11.8357 16.8312,11.4714C17.6932,10.4066 18.1476,9.1362 18.1476,7.7928C18.1476,4.5058 15.3905,1.831 12,1.831C8.6098,1.831 5.8524,4.5059 5.8524,7.7928C5.8524,9.1357 6.3067,10.4065 7.1676,11.4693C7.4661,11.8478 7.8809,12.4533 8.2951,13.211C8.9527,14.4139 9.3813,15.6109 9.4697,16.7321L14.5303,16.7321ZM15.266,17.563L8.7343,17.563L8.6341,17.4638L8.6341,17.1476C8.6341,16.0882 8.2371,14.8952 7.5735,13.6658C7.3397,13.2326 7.0886,12.8253 6.837,12.4556C6.6844,12.2316 6.556,12.0571 6.4951,11.9802C5.5178,10.7733 5,9.3236 5,7.7928C5,4.0467 8.1405,1 12,1C15.8595,1 19,4.0467 19,7.7928C19,9.3244 18.4821,10.7739 17.503,11.9829C17.2665,12.2784 16.8276,12.9238 16.4264,13.6679C15.7631,14.8977 15.3662,16.0902 15.3662,17.1476L15.3662,17.4638L15.266,17.563ZM8.6156,18.8194L8.6156,18.1869L8.7157,18.0877L15.2846,18.0877L15.3848,18.1869L15.3848,18.8194L15.2846,18.9186L8.7157,18.9186L8.6156,18.8194ZM8.6156,20.1798L8.6156,19.5472L8.7157,19.448L15.2846,19.448L15.3848,19.5472L15.3848,20.1798L15.2846,20.279L8.7157,20.279L8.6156,20.1798ZM8.6156,21.5401L8.6156,20.9076L8.7157,20.8084L15.2846,20.8084L15.3848,20.9076L15.3848,21.5401L15.2846,21.6393L8.7157,21.6393L8.6156,21.5401ZM9.9123,22.9008L9.9123,22.2682L10.0124,22.169L13.9879,22.169L14.0881,22.2682L14.0881,22.9008L13.9879,23L10.0124,23L9.9123,22.9008Z" stroke="#00000000" stroke-width="1.0" fill-rule="evenodd" id="path_0"/></svg>