<svg id="vector" xmlns="http://www.w3.org/2000/svg" width="16.0d" height="16.0d" viewBox="0 0 16.0 16.0"><path fill="@color/CL16" d="M3.5,10.0005C4.219,10.0005 5.011,10.3345 5.646,10.6045L5.646,10.6045L5.948,10.7305C6.199,10.8335 6.608,10.9195 7,10.9655L7,10.9655L7,11.9715C6.521,11.9255 5.971,11.8205 5.57,11.6565L5.57,11.6565L5.256,11.5255C4.704,11.2915 4.017,11.0005 3.5,11.0005C2.275,11.0005 2,12.4805 2,13.0005L2,13.0005L2.001,13.0381C2.0138,13.3211 2.1875,15.0005 4.5,15.0005C5.214,15.0005 6.241,14.6685 7,14.0215L7,14.0215L7,15.2385C6.193,15.7275 5.277,16.0005 4.5,16.0005C1.731,16.0005 1,14.0375 1,13.0005C1,11.8405 1.679,10.0005 3.5,10.0005ZM13,9L13,12L16,12L16,13L13,13L13,16L12,16L12,13L9,13L9,12L12,12L12,9L13,9ZM8,6C9.103,6 10,6.897 10,8C10,9.103 9.103,10 8,10C6.897,10 6,9.103 6,8C6,6.897 6.897,6 8,6ZM8,7C7.448,7 7,7.448 7,8C7,8.552 7.448,9 8,9C8.552,9 9,8.552 9,8C9,7.448 8.552,7 8,7ZM3,1C4.16,1 6,1.679 6,3.5C6,4.219 5.665,5.01 5.396,5.645L5.269,5.948C5.121,6.312 5,7.008 5,7.501L5,9L4,9C1.424,9 0,6.339 0,4.5C0,1.731 1.962,1 3,1ZM3,2L2.9622,2.001C2.6785,2.0138 1,2.1875 1,4.5C1,5.756 2.002,8 4,8L4,7.501C4,6.959 4.118,6.122 4.343,5.57L4.475,5.255C4.709,4.703 5,4.016 5,3.5C5,2.275 3.519,2 3,2ZM11.5,0C14.269,0 15,1.962 15,3C15,4.16 14.321,6 12.5,6C11.78,6 10.988,5.665 10.352,5.395L10.052,5.269C9.688,5.121 8.992,5 8.499,5L7,5L7,4C7,1.424 9.661,0 11.5,0ZM11.5,1C10.244,1 8,2.002 8,4L8.499,4C9.041,4 9.878,4.118 10.43,4.343L10.742,4.474C11.295,4.708 11.983,5 12.5,5C13.725,5 14,3.519 14,3C14,2.918 13.972,1 11.5,1Z" stroke="#00000000" stroke-width="1.0" fill-rule="evenodd" id="path_0"/></svg>