<svg xmlns="http://www.w3.org/2000/svg" viewBox="0 0 720 720">
<path fill="currentColor" d="M 326,27 l -7,16 11,76 10,76 3,35 2,35 14,-112 14,-112 -6,-15 -6,-16 -15,-0 -14,-0 -6,17 z M 217,57 l -7,6 0,22 0,23 16,13 16,13 23,46 24,46 15,60 15,59 4,30 4,30 2,-66 1,-65 -11,-59 -11,-60 -15,-30 -15,-30 -21,-23 -20,-22 -7,-0 -7,-0 -6,7 z M 432,78 l -29,31 -16,58 -17,58 -4,90 -5,90 10,-45 10,-45 20,-65 20,-65 36,-53 36,-53 -16,-16 -16,-16 -29,31 z M 147,157 l -7,6 0,13 0,14 36,32 35,32 40,81 39,80 11,60 11,60 9,20 9,20 -6,-70 -6,-70 -14,-64 -14,-64 -32,-59 -31,-59 -25,-20 -25,-19 -12,-0 -12,-0 -6,7 z M 480,187 l -33,37 -24,52 -24,52 -14,77 -15,77 1,51 1,52 13,-70 13,-70 15,-41 15,-41 22,-43 22,-43 45,-48 45,-49 -6,-15 -5,-15 -20,-0 -19,-0 -32,37 z M 152,593 l -30,42 30,42 30,42 19,-12 18,-11 -10,-18 -9,-17 72,-3 73,-3 -36,-23 -36,-22 -37,-0 -37,-0 10,-18 10,-18 -18,-11 -18,-12 -31,42 z M 485,570 l -7,11 12,14 12,14 -79,3 -78,3 42,23 42,22 37,-0 36,-0 -13,16 -13,16 18,14 19,13 28,-37 28,-37 1,-9 0,-9 -26,-34 -25,-33 -14,-0 -14,-0 -6,10 z"/>
</svg>