<svg xmlns="http://www.w3.org/2000/svg" viewBox="0 0 720 720">
<path fill="currentColor" d="M 120,480 l 0,240 120,-0 120,-0 0,-240 0,-240 -120,-0 -120,-0 0,240 z m 210,-0 l 0,210 -90,-0 -90,-0 0,-210 0,-210 90,-0 90,-0 0,210 z M 200,320 l -20,20 0,20 0,20 20,20 20,20 20,-0 20,-0 20,-20 20,-20 0,-20 0,-20 -20,-20 -20,-20 -20,-0 -20,-0 -20,20 z m 65,40 l 0,25 -23,3 -22,3 -6,-15 -6,-16 6,-16 6,-15 22,3 23,3 0,25 z M 180,495 l 0,15 60,-0 60,-0 0,-15 0,-15 -60,-0 -60,-0 0,15 z M 180,555 l 0,15 60,-0 60,-0 0,-15 0,-15 -60,-0 -60,-0 0,15 z M 180,615 l 0,15 60,-0 60,-0 0,-15 0,-15 -60,-0 -60,-0 0,15 z"/>
</svg>