<svg xmlns="http://www.w3.org/2000/svg" viewBox="0 0 720 720">
<path fill="currentColor" d="M 355,30 l -6,19 10,58 11,57 0,48 0,48 10,-0 10,-0 0,-43 0,-44 11,-56 11,-56 -6,-25 -6,-26 -20,-0 -19,-0 -6,20 z M 482,75 l -31,26 -21,57 -22,57 -4,100 -4,100 16,-70 15,-70 25,-55 25,-55 29,-37 30,-37 0,-9 0,-10 -14,-11 -14,-12 -30,26 z M 237,66 l -7,7 0,23 0,23 10,6 10,6 24,47 24,47 12,45 13,45 8,55 8,55 -4,-110 -3,-110 -11,-36 -11,-36 -23,-33 -22,-33 -11,-4 -10,-3 -7,6 z M 117,187 l -7,6 0,16 0,16 36,29 36,28 32,52 33,51 22,60 22,60 8,50 9,50 1,-60 1,-60 -15,-63 -15,-63 -27,-55 -27,-55 -38,-35 -38,-34 -13,-0 -14,-0 -6,7 z M 533,214 l -39,35 -27,55 -27,55 -15,63 -15,63 1,60 1,60 9,-50 8,-50 22,-59 21,-60 30,-48 30,-48 40,-34 40,-34 -4,-19 -3,-18 -17,-3 -17,-3 -38,35 z M 61,429 l -31,39 27,34 27,33 3,4 3,5 11,-11 10,-10 -16,-13 -15,-12 0,-9 0,-9 60,-0 60,-0 0,-15 0,-15 -61,-0 -61,-0 16,-24 16,-25 -9,-6 -9,-5 -31,39 z M 125,670 l -39,40 72,-0 72,-0 0,-40 0,-40 -33,-0 -33,-0 -39,40 z m 85,5 l 0,15 -36,-0 -36,-0 12,-15 12,-15 24,-0 24,-0 0,15 z M 250,672 l 0,38 85,-0 85,-0 0,-38 0,-38 -85,-0 -85,-0 0,38 z m 150,4 l 0,14 -65,-0 -65,-0 0,-14 0,-14 65,-0 65,-0 0,14 z"/>
</svg>